<?xml version="1.0" encoding="utf-8"?>
<!-- Generator: Adobe Illustrator 19.0.0, SVG Export Plug-In . SVG Version: 6.00 Build 0)  -->
<svg version="1.1" id="Layer_1" xmlns="http://www.w3.org/2000/svg" xmlns:xlink="http://www.w3.org/1999/xlink" x="0px" y="0px"
	 viewBox="-137.1 -124.8 400 300" style="enable-background:new -137.1 -124.8 400 300;" xml:space="preserve">
<style type="text/css">
	.st0{fill:#FFFFFF;stroke:#1B1464;stroke-width:2;stroke-miterlimit:10;}
	.st1{fill:#1B1464;stroke:#1B1464;stroke-miterlimit:10;}
	.st2{fill:#1B1464;}
</style>
<g>
	<circle id="XMLID_57_" class="st0" cx="62.9" cy="25.2" r="146.1"/>
	<g id="XMLID_110_">
		<path id="XMLID_2_" class="st1" d="M-82,6.2l77.8,0.1v10.3h6.9v17.2h13.8v13.8h92.8V33.8h13.8V16.6h6.9V6.3h78.3L-82,6.2z"/>
		<path id="XMLID_1_" class="st1" d="M62.2,120c-8.3-3.4-7.9-11.3-7.9-11.3C24.7,100.1,22,64,22,64c-6.2-3.1-3.4-9.3-3.4-9.3h88
			c0,0,2.4,6.2-3.4,9.3c0,0-2.8,36.4-32.3,45c0,0,0.3,7.6-7.9,11L62.2,120L62.2,120z"/>
		<rect id="XMLID_30_" x="59.8" y="121.5" class="st2" width="5.5" height="5.5"/>
		<rect id="XMLID_29_" x="61.9" y="127" class="st2" width="1.4" height="6.2"/>
	</g>
	<path class="st1" d="M62.9-120.9C-44.3-120.9-82-20.5-82,6.2l290.2,0.1C208.2-21.2,172.2-120.9,62.9-120.9z"/>
</g>
</svg>
