<?xml version="1.0" encoding="utf-8"?>
<!-- Generator: Adobe Illustrator 19.0.0, SVG Export Plug-In . SVG Version: 6.00 Build 0)  -->
<svg version="1.1" xmlns="http://www.w3.org/2000/svg" xmlns:xlink="http://www.w3.org/1999/xlink" x="0px" y="0px"
	 viewBox="0 0 184 184" style="enable-background:new 0 0 184 184;" xml:space="preserve">
<style type="text/css">
	.st0{display:none;}
	.st1{enable-background:new    ;}
	.st2{fill:#FFFFFF;}
</style>
<g id="_x3C_Background_x3E__xA0_0_xA0_Image_1_" class="st0">
	
		<image style="display:inline;overflow:visible;" width="838" height="838" id="_x3C_Background_x3E__xA0_0_xA0_Image" xlink:href="EA85B4254C2E140E.png"  transform="matrix(0.24 0 0 0.24 -8.7765 -8.1043)">
	</image>
</g>
<g id="ball_1_" class="st1">
	<g id="ball">
		<g>
			<path class="st2" d="M91.8,0C41,0-0.3,41.3-0.3,92.2s41.3,92.2,92.2,92.2c50.8,0,92.2-41.3,92.2-92.2S142.6,0,91.8,0z
				 M152.7,42.5c11,13.4,17.6,30.5,17.8,49c-2.6-0.5-28.6-5.8-54.8-2.5c-0.6-1.3-1.1-2.7-1.7-4.1c-1.6-3.8-3.4-7.7-5.2-11.4
				C137.9,61.7,151.1,44.7,152.7,42.5z M91.8,13.6c20,0,38.3,7.5,52.2,19.8c-1.4,2-13.3,17.9-41.3,28.4
				C89.8,38.1,75.5,18.7,73.4,15.7C79.3,14.3,85.5,13.6,91.8,13.6z M58.3,21c2.1,2.8,16.1,22.3,29.2,45.5
				c-36.8,9.8-69.3,9.6-72.8,9.6C19.9,51.7,36.3,31.4,58.3,21z M13.1,92.3c0-0.8,0-1.6,0-2.4c3.4,0.1,41.6,0.6,80.9-11.2
				c2.3,4.4,4.4,8.9,6.4,13.4c-1,0.3-2.1,0.6-3.1,0.9c-40.6,13.1-62.2,48.9-64,51.9C20.8,131,13.1,112.5,13.1,92.3z M91.8,171
				c-18.2,0-35-6.2-48.3-16.6c1.4-2.9,17.4-33.7,61.8-49.2c0.2-0.1,0.3-0.1,0.5-0.2c11.1,28.7,15.6,52.8,16.8,59.7
				C113.1,168.8,102.7,171,91.8,171z M135.8,157.5c-0.8-4.8-5-27.8-15.3-56.1c24.7-3.9,46.3,2.5,49,3.4
				C166,126.7,153.4,145.6,135.8,157.5z"/>
		</g>
	</g>
</g>
</svg>
