<?xml version="1.0" encoding="utf-8"?>
<!-- Generator: Adobe Illustrator 19.0.0, SVG Export Plug-In . SVG Version: 6.00 Build 0)  -->
<svg version="1.1" id="Layer_1" xmlns="http://www.w3.org/2000/svg" xmlns:xlink="http://www.w3.org/1999/xlink" x="0px" y="0px"
	 viewBox="-459 461 40 40" style="enable-background:new -459 461 40 40;" xml:space="preserve">
<style type="text/css">
	.st0{fill:none;stroke:#FFFFFF;stroke-width:3;stroke-miterlimit:10;}
	.st1{fill:#FFFFFF;}
</style>
<path class="st0" d="M-420.5,489.4c0,5.5-4.5,10-10,10h-17c-5.5,0-10-4.5-10-10v-17c0-5.5,4.5-10,10-10h17c5.5,0,10,4.5,10,10V489.4
	z"/>
<path class="st1" d="M-447.3,474.5c-0.2,0-0.4,0-0.6,0.1l8.4,7c0.2,0.2,0.7,0.2,1,0l8.4-7c-0.2-0.1-0.4-0.1-0.6-0.1H-447.3z
	 M-449.6,476.3c-0.1,0.2-0.2,0.4-0.2,0.7v9c0,0.8,0.7,1.5,1.5,1.5h18.5c0.8,0,1.5-0.7,1.5-1.5v-9c0-0.2-0.1-0.5-0.2-0.7l-9.5,8.1
	c-0.6,0.6-1.6,0.6-2.3,0L-449.6,476.3z"/>
</svg>
