<?xml version="1.0" encoding="utf-8"?>
<!-- Generator: Adobe Illustrator 19.0.0, SVG Export Plug-In . SVG Version: 6.00 Build 0)  -->
<svg version="1.1" xmlns="http://www.w3.org/2000/svg" xmlns:xlink="http://www.w3.org/1999/xlink" x="0px" y="0px"
	 viewBox="-464.5 460.5 40 40" style="enable-background:new -464.5 460.5 40 40;" xml:space="preserve">
<style type="text/css">
	.st0{fill:none;stroke:#FFFFFF;stroke-width:3;stroke-miterlimit:10;}
	.st1{fill:#FFFFFF;}
</style>
<g id="Layer_1">
	<path class="st0" d="M-1355,1221c0,1.1-0.9,2-2,2h-28c-1.1,0-2-0.9-2-2v-28c0-1.1,0.9-2,2-2h28c1.1,0,2,0.9,2,2V1221z"/>
	<g>
		<rect x="-1380" y="1202" class="st1" width="4" height="14"/>
		<path class="st1" d="M-1366.5,1202c-2.8,0-3.3,1-3.5,2v-2h-4v14h4v-8c0-1.3,0.7-2,2-2s2,0.7,2,2v8h4v-7
			C-1362,1205-1362.5,1202-1366.5,1202z"/>
		<circle class="st1" cx="-1378" cy="1199" r="2"/>
	</g>
	<path class="st1" d="M-452.8,474c-0.2,0-0.4,0-0.6,0.1l8.4,7c0.2,0.2,0.7,0.2,1,0l8.4-7c-0.2-0.1-0.4-0.1-0.6-0.1H-452.8z
		 M-455.1,475.8c-0.1,0.2-0.2,0.4-0.2,0.7v9c0,0.8,0.7,1.5,1.5,1.5h18.5c0.8,0,1.5-0.7,1.5-1.5v-9c0-0.2-0.1-0.5-0.2-0.7l-9.5,8.1
		c-0.6,0.6-1.6,0.6-2.3,0L-455.1,475.8z"/>
</g>
<g id="Layer_2">
	<circle class="st0" cx="-444.5" cy="480.5" r="18.3"/>
</g>
</svg>
