<?xml version="1.0" encoding="utf-8"?>
<!-- Generator: Adobe Illustrator 19.0.0, SVG Export Plug-In . SVG Version: 6.00 Build 0)  -->
<svg version="1.1" id="Layer_1" xmlns="http://www.w3.org/2000/svg" xmlns:xlink="http://www.w3.org/1999/xlink" x="0px" y="0px"
	 viewBox="-464.5 263.5 35 35" style="enable-background:new -464.5 263.5 35 35;" xml:space="preserve">
<style type="text/css">
	.st0{fill:none;stroke:#FFFFFF;stroke-width:3;stroke-miterlimit:10;}
	.st1{fill:#FFFFFF;}
</style>
<path class="st0" d="M-431,295c0,1.1-0.9,2-2,2h-28c-1.1,0-2-0.9-2-2v-28c0-1.1,0.9-2,2-2h28c1.1,0,2,0.9,2,2V295z"/>
<g>
	<rect x="-456" y="276" class="st1" width="4" height="14"/>
	<path class="st1" d="M-442.5,276c-2.8,0-3.3,1-3.5,2v-2h-4v14h4v-8c0-1.3,0.7-2,2-2c1.3,0,2,0.7,2,2v8h4v-7
		C-438,279-438.5,276-442.5,276z"/>
	<circle class="st1" cx="-454" cy="273" r="2"/>
</g>
</svg>
