<?xml version="1.0" encoding="utf-8"?>
<!-- Generator: Adobe Illustrator 19.0.0, SVG Export Plug-In . SVG Version: 6.00 Build 0)  -->
<svg version="1.1" xmlns="http://www.w3.org/2000/svg" xmlns:xlink="http://www.w3.org/1999/xlink" x="0px" y="0px"
	 viewBox="-579 330.5 400 300" style="enable-background:new -579 330.5 400 300;" xml:space="preserve">
<style type="text/css">
	.st0{fill:#FF008C;}
	.st1{fill:none;stroke:#FF008C;stroke-miterlimit:10;}
	.st2{fill:#CE008C;}
</style>
<g id="Layer_3">
	
		<image style="overflow:visible;" width="1524" height="1052" xlink:href="../Desktop/Screen Shot 2017-07-05 at 12.49.20 PM.png"  transform="matrix(0.1783 0 0 0.1773 -514.8467 389.7805)">
	</image>
</g>
<g id="Layer_2">
	<path class="st0" d="M-237.1,374h-283.9c-6.4,0-11.6,5.2-11.6,11.6v177h307.1v-177C-225.5,379.2-230.6,374-237.1,374z
		 M-245.3,538.3c0,4.8-3.9,8.7-8.7,8.7h-251.3c-4.8,0-8.7-3.9-8.7-8.7V398.9c0-4.8,3.9-8.7,8.7-8.7H-254c4.8,0,8.7,3.9,8.7,8.7
		V538.3z"/>
	<path class="st1" d="M-244.9,398.9v139.3c0,4.8-3.9,8.7-8.7,8.7H-505c-4.8,0-8.7-3.9-8.7-8.7V398.9c0-4.8,3.9-8.7,8.7-8.7h251.3
		C-248.9,390.2-244.9,394.1-244.9,398.9z"/>
	<path class="st1" d="M-244.9,398.9v139.3c0,4.8-3.9,8.7-8.7,8.7H-505c-4.8,0-8.7-3.9-8.7-8.7V398.9c0-4.8,3.9-8.7,8.7-8.7h251.3
		C-248.9,390.2-244.9,394.1-244.9,398.9z"/>
	<path class="st2" d="M-196.9,560.6h-364.2c-0.6,0.6-1,1.3-1,2.1v12.7c0,6.4,5.6,11.6,12.3,11.6h341.6c6.8,0,12.3-5.2,12.3-11.6
		v-12.7C-195.9,561.9-196.2,561.2-196.9,560.6z M-340.3,570.9h-80.7c-2.8,0-5.2-1-5.2-3.7c0-2.7,2.3-3.8,5.2-3.8h80.7
		c2.8,0,5.2,1,5.2,3.8C-335.1,569.8-337.4,570.9-340.3,570.9z"/>
	<path class="st1" d="M-206.4,579.2"/>
	<circle class="st2" cx="-379" cy="382.6" r="2.9"/>
	<path class="st0" d="M-338.8,570.9h-83.6c-2.1,0-3.7-1.7-3.7-3.7l0,0c0-2.1,1.7-3.7,3.7-3.7h83.6c2.1,0,3.7,1.7,3.7,3.7l0,0
		C-335.1,569.2-336.8,570.9-338.8,570.9z"/>
</g>
</svg>
