<?xml version="1.0" encoding="utf-8"?>
<!-- Generator: Adobe Illustrator 19.0.0, SVG Export Plug-In . SVG Version: 6.00 Build 0)  -->
<svg version="1.1" id="Layer_1" xmlns="http://www.w3.org/2000/svg" xmlns:xlink="http://www.w3.org/1999/xlink" x="0px" y="0px"
	 viewBox="0 0 360 99.6" style="enable-background:new 0 0 360 99.6;" xml:space="preserve">
<style type="text/css">
	.st0{fill:#FFFFFF;}
</style>
<g>
	<g>
		<path class="st0" d="M140.3,34.4V75h-9.1V34.4H122v-8.7h27.4v8.7H140.3z"/>
		<path class="st0" d="M165.4,54.4V75h-8.9V38h8.1v3.6c2.3-3.4,4.2-4.5,8-4.5h0.7v8.5C168,45.8,165.4,48.7,165.4,54.4z"/>
		<path class="st0" d="M182.5,75V38h8.9V75H182.5z M182.6,32.7v-8.9h8.9v8.9H182.6z"/>
		<path class="st0" d="M231.2,75l-20.6-35.8V75h-9.1V25.7h10.4l20.4,35.9V25.7h9.1V75H231.2z"/>
		<path class="st0" d="M286.5,60.4h-28.6c1.1,4.5,4.9,7.3,10.2,7.3c3.7,0,5.9-1,8.1-3.7h9.7c-2.5,7.6-10.1,11.8-17.6,11.8
			c-11.3,0-20-8.4-20-19.2c0-10.9,8.6-19.5,19.5-19.5c11,0,19.1,8.4,19.1,19.9C286.8,58.3,286.8,59.1,286.5,60.4z M267.9,45.3
			c-5.3,0-8.9,2.6-10.3,7.3h20.5C276.9,47.9,273.3,45.3,267.9,45.3z"/>
		<path class="st0" d="M305.2,46.1V75h-8.9V46.1H292V38h4.3V25.7h8.9V38h5.3v8.1H305.2z"/>
		<path class="st0" d="M349.4,75l-11.8-17l-11.5,17h-10.9l16.9-24.5l-16.9-24.7h10.9l11.5,17.2l11.8-17.2H360l-17.1,24.7L360,75
			H349.4z"/>
	</g>
</g>
<g>
	<g>
		<path class="st0" d="M49.8,0C63.6,0,76,5.6,85,14.6c9,9,14.6,21.5,14.6,35.2C99.6,63.6,94.1,76,85,85c-9,9-21.5,14.6-35.2,14.6
			c-13.8,0-26.2-5.6-35.2-14.6C5.6,76,0,63.6,0,49.8C0,36,5.6,23.6,14.6,14.6C23.6,5.6,36.1,0,49.8,0L49.8,0z M22.6,54.2l-5.7,29.5
			c8,7.7,18.6,12.7,30.5,13.3l-18-26.6l-0.1-0.1L29,69.9l-4-9.8L22.6,54.2z M14.7,81.4l6.1-31.5l-0.1-0.1l0.2-0.5l4-9.8l2.4-5.9
			L2.6,50.5C2.7,62.4,7.3,73.2,14.7,81.4L14.7,81.4z M2.6,47.4l26.6-18l0.1-0.1l0.5-0.2l9.8-4l5.9-2.4l-29.5-5.7
			C8.2,24.9,3.2,35.5,2.6,47.4L2.6,47.4z M18.2,14.7l31.5,6.1l0.1-0.1l0.5,0.2l9.8,4l5.9,2.4L49.1,2.6C37.2,2.7,26.4,7.3,18.2,14.7
			L18.2,14.7z M52.3,2.6l18,26.6l0.1,0.1l0.2,0.5l4,9.8l2.4,5.9l5.7-29.5C74.8,8.2,64.1,3.2,52.3,2.6L52.3,2.6z M84.9,18.2
			l-6.1,31.5l0.1,0.1l-0.2,0.5l-4,9.8l-2.4,5.9l24.9-16.8C96.9,37.2,92.3,26.4,84.9,18.2L84.9,18.2z M97,52.3l-26.6,18l-0.1,0.1
			l-0.5,0.2l-9.8,4l-5.9,2.4l29.5,5.7C91.4,74.8,96.4,64.1,97,52.3L97,52.3z M81.4,84.9l-31.5-6.1l-0.1,0.1l-0.5-0.2l-9.8-4
			l-5.9-2.4l16.8,24.9C62.4,96.9,73.2,92.3,81.4,84.9L81.4,84.9z M59.1,27.4l-9.3-3.8l-9.3,3.8l-9.3,3.9l-3.9,9.3l-3.8,9.3l3.8,9.3
			l3.9,9.3l9.3,3.9l9.3,3.8l9.3-3.8l9.3-3.9l3.9-9.3l3.8-9.3l-3.8-9.3l-3.9-9.3L59.1,27.4z"/>
	</g>
</g>
</svg>
