<?xml version="1.0" encoding="utf-8"?>
<!-- Generator: Adobe Illustrator 19.0.0, SVG Export Plug-In . SVG Version: 6.00 Build 0)  -->
<svg version="1.1" id="Layer_1" xmlns="http://www.w3.org/2000/svg" xmlns:xlink="http://www.w3.org/1999/xlink" x="0px" y="0px"
	 viewBox="-299 431.4 360 99.6" style="enable-background:new -299 431.4 360 99.6;" xml:space="preserve">
<g>
	<g>
		<path d="M-158.7,465.8v40.6h-9.1v-40.6h-9.2v-8.7h27.4v8.7H-158.7z"/>
		<path d="M-133.6,485.8v20.6h-8.9v-37h8.1v3.6c2.3-3.4,4.2-4.5,8-4.5h0.7v8.5C-131,477.2-133.6,480.1-133.6,485.8z"/>
		<path d="M-116.5,506.4v-37h8.9v37H-116.5z M-116.4,464.1v-8.9h8.9v8.9H-116.4z"/>
		<path d="M-67.8,506.4l-20.6-35.8v35.8h-9.1v-49.3h10.4l20.4,35.9v-35.9h9.1v49.3H-67.8z"/>
		<path d="M-12.5,491.8h-28.6c1.1,4.5,4.9,7.3,10.2,7.3c3.7,0,5.9-1,8.1-3.7h9.7c-2.5,7.6-10.1,11.8-17.6,11.8
			c-11.3,0-20-8.4-20-19.2c0-10.9,8.6-19.5,19.5-19.5c11,0,19.1,8.4,19.1,19.9C-12.2,489.7-12.2,490.5-12.5,491.8z M-31.1,476.7
			c-5.3,0-8.9,2.6-10.3,7.3h20.5C-22.1,479.3-25.7,476.7-31.1,476.7z"/>
		<path d="M6.2,477.5v28.9h-8.9v-28.9H-7v-8.1h4.3v-12.3h8.9v12.3h5.3v8.1H6.2z"/>
		<path d="M50.4,506.4l-11.8-17l-11.5,17H16.2l16.9-24.5l-16.9-24.7h10.9l11.5,17.2l11.8-17.2H61l-17.1,24.7L61,506.4H50.4z"/>
	</g>
</g>
<g>
	<g>
		<path d="M-249.2,431.4c13.8,0,26.2,5.6,35.2,14.6s14.6,21.5,14.6,35.2c0,13.8-5.5,26.2-14.6,35.2c-9,9-21.5,14.6-35.2,14.6
			c-13.8,0-26.2-5.6-35.2-14.6c-9-9-14.6-21.4-14.6-35.2c0-13.8,5.6-26.2,14.6-35.2S-262.9,431.4-249.2,431.4L-249.2,431.4z
			 M-276.4,485.6l-5.7,29.5c8,7.7,18.6,12.7,30.5,13.3l-18-26.6l-0.1-0.1l-0.3-0.4l-4-9.8L-276.4,485.6z M-284.3,512.8l6.1-31.5
			l-0.1-0.1l0.2-0.5l4-9.8l2.4-5.9l-24.7,16.9C-296.3,493.8-291.7,504.6-284.3,512.8L-284.3,512.8z M-296.4,478.8l26.6-18l0.1-0.1
			l0.5-0.2l9.8-4l5.9-2.4l-29.5-5.7C-290.8,456.3-295.8,466.9-296.4,478.8L-296.4,478.8z M-280.8,446.1l31.5,6.1l0.1-0.1l0.5,0.2
			l9.8,4l5.9,2.4l-16.9-24.7C-261.8,434.1-272.6,438.7-280.8,446.1L-280.8,446.1z M-246.7,434l18,26.6l0.1,0.1l0.2,0.5l4,9.8
			l2.4,5.9l5.7-29.5C-224.2,439.6-234.9,434.6-246.7,434L-246.7,434z M-214.1,449.6l-6.1,31.5l0.1,0.1l-0.2,0.5l-4,9.8l-2.4,5.9
			l24.9-16.8C-202.1,468.6-206.7,457.8-214.1,449.6L-214.1,449.6z M-202,483.7l-26.6,18l-0.1,0.1l-0.5,0.2l-9.8,4l-5.9,2.4l29.5,5.7
			C-207.6,506.2-202.6,495.5-202,483.7L-202,483.7z M-217.6,516.3l-31.5-6.1l-0.1,0.1l-0.5-0.2l-9.8-4l-5.9-2.4l16.8,24.9
			C-236.6,528.3-225.8,523.7-217.6,516.3L-217.6,516.3z M-239.9,458.8l-9.3-3.8l-9.3,3.8l-9.3,3.9l-3.9,9.3l-3.8,9.3l3.8,9.3
			l3.9,9.3l9.3,3.9l9.3,3.8l9.3-3.8l9.3-3.9l3.9-9.3l3.8-9.3l-3.8-9.3l-3.9-9.3L-239.9,458.8z"/>
	</g>
</g>
</svg>
